<?xml version="1.0" encoding="UTF-8"?>
<svg version="1.1" xmlns="http://www.w3.org/2000/svg" width="1024" height="1024">
<path d="M0 0 C0.94375488 0.2578125 1.88750977 0.515625 2.85986328 0.78125 C40.09110981 11.29531995 77.52746927 34.74766353 97 69 C101.4497139 77.05662842 104.63038659 85.39268225 107.3125 94.1875 C107.55508545 94.98236816 107.7976709 95.77723633 108.04760742 96.59619141 C117.58007791 129.50326346 112.57748155 166.0965172 96.375 196 C91.70478468 204.31971641 86.23621356 211.9426124 80.28662109 219.38916016 C79.23287861 220.70843775 78.20110495 222.04523528 77.17578125 223.38671875 C52.67736359 253.80918703 6.33181061 266.93630211 -29.40625 276.92236328 C-33.9758268 278.235921 -38.07689691 279.88111929 -42.2734375 282.12402344 C-44 283 -44 283 -47 284 C-47.68102838 285.32605526 -48.34439791 286.66119153 -49 288 C-50.56119944 289.82922837 -52.17082133 291.61764082 -53.8125 293.375 C-56.5740186 296.34650495 -59.28256129 299.28019474 -61.75 302.5 C-64.25972971 305.28858857 -66.61476813 306.46125824 -70 308 C-71.52491998 311.04983996 -71.23562548 313.6423369 -71 317 C-69.78579426 318.78712252 -69.78579426 318.78712252 -68 320 C-58.93297838 320.2700815 -50.8629494 315.8473439 -42.75 312.25 C-41.20127219 311.57429983 -39.65211261 310.89958847 -38.10253906 310.22583008 C-30.54530052 306.93006536 -23.01766933 303.56850296 -15.5 300.18359375 C-14.83703918 299.88528656 -14.17407837 299.58697937 -13.49102783 299.27963257 C-10.37332022 297.8752244 -7.25986516 296.46284932 -4.15136719 295.03808594 C1.17692276 292.61359767 6.29761376 290.35967302 12 289 C16.15284634 295.20241921 17.52738733 301.42765481 19 308.6875 C19.38128052 310.51873413 19.38128052 310.51873413 19.77026367 312.38696289 C24.61799906 336.32849588 27.2334472 360.09612174 27.25 384.5 C27.25101212 385.84976929 27.25101212 385.84976929 27.25204468 387.22680664 C27.18242502 446.06127559 10.95639969 501.5012573 -19 552 C-19.45938965 552.77666016 -19.9187793 553.55332031 -20.39208984 554.35351562 C-25.99255353 563.75108113 -32.15826528 572.47048635 -39 581 C-39.65484375 581.83660156 -40.3096875 582.67320312 -40.984375 583.53515625 C-42.96151773 586.04743472 -44.97495872 588.52618584 -47 591 C-47.76570312 591.95261719 -48.53140625 592.90523437 -49.3203125 593.88671875 C-56.14459403 602.20662743 -63.64758343 609.8359476 -71.25 617.4375 C-71.76933105 617.95773743 -72.28866211 618.47797485 -72.82373047 619.01397705 C-78.70094159 624.89002905 -84.63441627 630.64819442 -91 636 C-91.55510254 636.47252197 -92.11020508 636.94504395 -92.68212891 637.43188477 C-134.9120005 673.03783211 -185.915749 694.57538365 -240 704 C-241.37792725 704.24991699 -241.37792725 704.24991699 -242.78369141 704.50488281 C-273.65158067 709.88823378 -308.16331025 709.1943479 -339 704 C-340.55388428 703.74259033 -340.55388428 703.74259033 -342.13916016 703.47998047 C-394.28118597 694.55706765 -443.43660227 672.66114978 -485 640 C-485.98355469 639.23042969 -486.96710938 638.46085938 -487.98046875 637.66796875 C-505.74318708 623.44241511 -523.17906559 607.09595103 -537 589 C-538.08250765 587.64283136 -539.16735517 586.28752738 -540.25390625 584.93359375 C-593.30451006 518.43364321 -616.48521499 432.05815159 -607.875 347.6875 C-600.27154737 281.29649118 -572.17001427 218.69116751 -527.1484375 169.3671875 C-525.24848159 167.27378154 -523.39998279 165.14804326 -521.5625 163 C-514.94147069 155.41340392 -507.6702653 148.50892231 -500 142 C-499.1028125 141.21367187 -498.205625 140.42734375 -497.28125 139.6171875 C-454.43432247 102.30943292 -401.71076912 76.4305115 -345.8125 66.25 C-344.17607544 65.95174316 -344.17607544 65.95174316 -342.5065918 65.64746094 C-325.36431299 62.68957753 -308.47920753 61.64936444 -291.09545898 61.68432617 C-287.8334789 61.68747972 -284.57241546 61.66394246 -281.31054688 61.63867188 C-261.15020378 61.57673286 -241.5609638 64.00033932 -221.8125 67.9375 C-219.92047852 68.29618164 -219.92047852 68.29618164 -217.99023438 68.66210938 C-210.74540625 70.07965706 -203.76098805 71.86192582 -196.74414062 74.15942383 C-193.47571145 75.16059835 -190.39601303 75.68409181 -187 76 C-183.09923296 71.17280079 -179.45795332 66.25989687 -176.0625 61.0625 C-172.34674702 55.42455942 -168.35383665 50.1582598 -164 45 C-163.31292969 44.17757812 -162.62585938 43.35515625 -161.91796875 42.5078125 C-137.19001772 13.90358807 -99.86543276 -0.42980578 -62.96801758 -3.81689453 C-42.11544303 -5.10334932 -20.24421985 -5.63423929 0 0 Z M-6 60 C-10.61529437 66.32701068 -11.48203092 73.75423268 -10.61328125 81.40625 C-11.16564517 86.53932881 -13.61849988 88.22132516 -17.4375 91.4375 C-18.80692944 92.64998098 -20.17537919 93.86356915 -21.54296875 95.078125 C-22.26661621 95.71041016 -22.99026367 96.34269531 -23.73583984 96.99414062 C-27.65788755 100.46875179 -31.44643767 104.08431967 -35.25 107.6875 C-36.67182721 109.0247904 -38.09369906 110.36203334 -39.515625 111.69921875 C-41.25881432 113.33935894 -42.96376339 114.96063204 -44.58496094 116.72192383 C-45.28540527 117.35457153 -45.28540527 117.35457153 -46 118 C-48.13745922 117.74853421 -49.45925779 117.54074221 -51 116 C-51.13382784 113.83496299 -51.23144455 111.6676543 -51.3125 109.5 C-51.85917676 101.10338665 -53.92575862 94.07424138 -60 88 C-67.04169914 82.71487351 -73.67655552 80.2902074 -82.515625 81.46875 C-89.80847433 83.02822722 -95.52809712 87.06765288 -100 93 C-103.93924539 100.01859651 -105.37492188 106.71183892 -103.33984375 114.5390625 C-100.65648055 122.22904709 -96.23322815 127.41025123 -89.125 131.375 C-82.02372014 134.53568526 -76.22409691 134.53275346 -69.01953125 131.76953125 C-66.71503684 130.89141636 -64.43187217 130.39223745 -62 130 C-61.01 131.2684375 -61.01 131.2684375 -60 132.5625 C-57.35897511 135.73616857 -54.40014825 138.32217792 -51.265625 140.99609375 C-40.03554869 150.92890263 -40.03554869 150.92890263 -38 155 C-39.1873877 154.99476318 -40.37477539 154.98952637 -41.59814453 154.98413086 C-72.31566771 154.77319044 -72.31566771 154.77319044 -103 156 C-103.13148438 155.23558594 -103.26296875 154.47117187 -103.3984375 153.68359375 C-104.84891807 147.21294342 -109.71548106 142.65602433 -115 139 C-121.28350616 135.57613032 -127.72057481 134.81198047 -134.6171875 136.7265625 C-139.81236822 138.62272638 -143.41130691 140.67245834 -147 145 C-148.0828125 146.2684375 -148.0828125 146.2684375 -149.1875 147.5625 C-153.52420405 153.39461924 -154.64519663 159.39343483 -153.63671875 166.59375 C-151.65665947 174.46539673 -147.26235446 179.41730272 -141 184.375 C-133.91426959 188.21310397 -127.78970915 188.52871637 -120 187 C-113.34667626 184.86350512 -107.15054366 180.16433085 -103.90966797 173.88867188 C-103.60947754 173.26541016 -103.30928711 172.64214844 -103 172 C-87.80589765 170.89119135 -72.60045556 170.71511611 -57.37255859 170.64990234 C-54.51547478 170.63638822 -51.6590759 170.60815807 -48.80224609 170.56787109 C-45.30602971 170.51864683 -41.81044793 170.49380412 -38.31389999 170.48667526 C-36.35723764 170.47674981 -34.40074674 170.44254121 -32.44436646 170.40786743 C-30.67003738 170.41214249 -30.67003738 170.41214249 -28.85986328 170.41650391 C-27.30248947 170.40437363 -27.30248947 170.40437363 -25.71365356 170.39199829 C-23 171 -23 171 -20.61813354 173.30209351 C-18.70255083 176.4959356 -18.98201773 178.24365757 -19.62109375 181.8359375 C-20.97702659 189.58013124 -19.92542067 196.1415403 -16 203 C-11.73541006 208.56661077 -7.01369714 212.73801989 0 214 C8.44931571 215.02983349 14.97865387 213.92748041 22 209 C27.62724168 204.33084473 30.42466464 198.05011196 32 191 C32.54179658 183.75076177 30.33885033 177.76019785 26 172 C21.89046626 167.64524717 17.60590453 164.21285705 12 162 C8.4558079 161.95834446 5.06049752 162.11007669 1.54101562 162.46875 C-4.29602653 162.76510028 -7.30074467 160.90759457 -11.68139648 157.15234375 C-15.82834941 153.30275578 -19.89263625 149.39505173 -23.875 145.375 C-24.71546875 144.54226563 -25.5559375 143.70953125 -26.421875 142.8515625 C-27.22882813 142.04203125 -28.03578125 141.2325 -28.8671875 140.3984375 C-29.59019043 139.67317871 -30.31319336 138.94791992 -31.05810547 138.20068359 C-33.05675619 135.93568013 -34.53071944 133.63291842 -36 131 C-32.7318517 127.70687173 -29.46023304 124.41724235 -26.18554688 121.13061523 C-25.07524416 120.0153271 -23.96584571 118.89913789 -22.85742188 117.78198242 C-17.25553504 112.13712083 -11.68357805 106.5242204 -5.60351562 101.38696289 C-3.99062339 99.99188969 -2.48940591 98.52528499 -1 97 C4 99 4 99 6.3203125 100.04296875 C11.96522663 102.05900951 18.15914762 101.94956668 23.828125 100.0546875 C31.62257331 96.34415672 36.07300797 91.57348463 40 84 C42.02648187 77.92055439 41.85811214 71.2605854 39.4375 65.3125 C36.24407204 59.00491358 31.52898295 52.99980298 25 50 C12.43524714 46.25448171 2.52619976 50.68495892 -6 60 Z M-478 208 C-477.38297222 211.37579011 -476.86197982 213.63892903 -474.734375 216.35546875 C-474.26354492 216.96801514 -473.79271484 217.58056152 -473.30761719 218.21166992 C-472.53659668 219.18970581 -472.53659668 219.18970581 -471.75 220.1875 C-470.64423329 221.62376957 -469.54012352 223.061316 -468.4375 224.5 C-467.86644531 225.2425 -467.29539062 225.985 -466.70703125 226.75 C-463.98096484 230.34316762 -461.3696332 234.01643001 -458.75 237.6875 C-453.22615399 245.39599389 -447.50213846 252.93883957 -441.73144531 260.46362305 C-437.66665329 265.77599053 -433.71006303 271.14065544 -429.86645508 276.61425781 C-426.04766819 282.01385956 -422.02318026 287.25176832 -418 292.5 C-413.13324106 298.85141847 -408.33119115 305.2272709 -403.71777344 311.76489258 C-400.28967646 316.61804976 -396.7791896 321.40743396 -393.25 326.1875 C-392.36139282 327.39128296 -392.36139282 327.39128296 -391.45483398 328.61938477 C-389.6372819 331.08012722 -387.81876353 333.54015284 -386 336 C-378.46706893 346.19100612 -370.94091014 356.38481447 -363.57348633 366.6965332 C-361.16853997 370.0523854 -358.74143732 373.36538856 -356.15234375 376.58203125 C-355.72219971 377.12351807 -355.29205566 377.66500488 -354.84887695 378.22290039 C-353.71800723 379.63394969 -352.56688887 381.02870674 -351.4140625 382.421875 C-350 385 -350 385 -349.88671875 387.78515625 C-351.48984731 392.41454152 -354.20862104 395.83621239 -357.1875 399.6875 C-358.47294912 401.38910171 -359.75809709 403.09093096 -361.04296875 404.79296875 C-362.03176025 406.09113525 -362.03176025 406.09113525 -363.04052734 407.41552734 C-366.07043268 411.41186149 -369.03352844 415.45649438 -372 419.5 C-373.16630521 421.0835996 -374.33297303 422.66693222 -375.5 424.25 C-376.36625 425.425625 -376.36625 425.425625 -377.25 426.625 C-386.875 439.6875 -386.875 439.6875 -396.5 452.75 C-397.07766113 453.5339917 -397.65532227 454.3179834 -398.25048828 455.12573242 C-399.41543849 456.70668983 -400.58047734 458.28758192 -401.74560547 459.8684082 C-404.6892698 463.86255828 -407.63131346 467.8578843 -410.5703125 471.85546875 C-416.49809725 479.91517608 -422.45167967 487.95324903 -428.46582031 495.94873047 C-434.10309086 503.4520678 -439.65871279 511.01530541 -445.21777344 518.57666016 C-448.1423075 522.55322524 -451.07139564 526.52643221 -454 530.5 C-455.15495327 532.06770439 -456.30990117 533.63541273 -457.46484375 535.203125 C-459.91396346 538.52707713 -462.36473056 541.84980771 -464.81640625 545.171875 C-465.44353516 546.02201172 -466.07066406 546.87214844 -466.71679688 547.74804688 C-467.90907674 549.36424847 -469.10175681 550.98015493 -470.29492188 552.59570312 C-471.36630964 554.04836768 -472.4337486 555.50395569 -473.49658203 556.96289062 C-474.4915979 558.31112258 -475.5081573 559.6437408 -476.54638672 560.95898438 C-478.14378313 562.97099884 -478.14378313 562.97099884 -480 566 C-479.69651964 568.16217925 -479.69651964 568.16217925 -479 570 C-465.13539103 570.11685585 -451.27085854 570.20466638 -437.40585804 570.25906086 C-430.96790818 570.28516617 -424.53028889 570.32058252 -418.0925293 570.37719727 C-411.88094008 570.43148184 -405.66966904 570.46141349 -399.45786095 570.47438622 C-397.08672768 570.48363234 -394.71561203 570.50168771 -392.34461403 570.52865028 C-389.02598928 570.5648918 -385.70868304 570.56994718 -382.38989258 570.56762695 C-381.40733994 570.58560333 -380.42478729 570.60357971 -379.41246033 570.62210083 C-374.80141528 570.58716518 -372.71415959 570.56119349 -368.99369812 567.63761902 C-368.33577774 566.76720474 -367.67785736 565.89679047 -367 565 C-365.86691406 563.62908203 -365.86691406 563.62908203 -364.7109375 562.23046875 C-359.18164093 555.02758911 -353.95117739 547.67105409 -348.84375 540.1640625 C-345.9784765 535.95519735 -343.06193857 531.78410103 -340.125 527.625 C-339.37972046 526.56949951 -339.37972046 526.56949951 -338.61938477 525.49267578 C-334.43652904 519.58580973 -330.18277845 513.73145526 -325.9284668 507.87597656 C-321.99783984 502.4415848 -318.19813666 496.92802138 -314.4375 491.375 C-309.93560929 484.73050903 -305.26761129 478.25744905 -300.3984375 471.87792969 C-296.24393544 466.40783531 -292.35521673 460.77735949 -288.56396484 455.05004883 C-286.54385344 452.0398145 -285.05320964 450.0354731 -282 448 C-281.77159424 448.51151611 -281.54318848 449.02303223 -281.30786133 449.55004883 C-279.49375364 452.94832596 -277.27781336 456.04706752 -275.07421875 459.19921875 C-271.12507664 464.89489955 -267.22544131 470.6186287 -263.39453125 476.39453125 C-262.93440643 477.08755341 -262.47428162 477.78057556 -262.00021362 478.49459839 C-260.13102305 481.31171899 -258.26383629 484.13015684 -256.39868164 486.94995117 C-251.32085175 494.62243363 -246.21579496 502.23669115 -240.72998047 509.62573242 C-238.1362854 513.18538308 -235.73206852 516.86493325 -233.3046875 520.5390625 C-230.02322351 525.48896863 -226.65201559 530.37794758 -223.29052734 535.27368164 C-220.1650282 539.82791615 -217.05614344 544.39248151 -213.96875 548.97265625 C-213.297229 549.96604004 -212.62570801 550.95942383 -211.93383789 551.98291016 C-210.62742311 553.91641043 -209.3243871 555.85219902 -208.02514648 557.79052734 C-207.42774658 558.67305176 -206.83034668 559.55557617 -206.21484375 560.46484375 C-205.69011475 561.244646 -205.16538574 562.02444824 -204.62475586 562.82788086 C-204.08858643 563.54468018 -203.55241699 564.26147949 -203 565 C-202.49845398 565.69510681 -201.99690796 566.39021362 -201.48016357 567.10638428 C-197.72697018 569.97196383 -194.29325497 569.53634925 -189.69262695 569.4699707 C-188.75064957 569.4721611 -187.80867218 569.4743515 -186.83815002 569.47660828 C-183.72117091 569.47892128 -180.60513471 569.45264237 -177.48828125 569.42578125 C-175.31837768 569.42085626 -173.14846986 569.41755809 -170.9785614 569.41581726 C-166.42640651 569.40817174 -161.87456539 569.38760122 -157.32250977 569.35668945 C-151.50323569 569.31723228 -145.68416628 569.29909864 -139.86477375 569.28938007 C-134.30174881 569.27937099 -128.73877304 569.25951093 -123.17578125 569.23828125 C-121.59313193 569.23318763 -121.59313193 569.23318763 -119.9785099 569.2279911 C-116.97039702 569.21632955 -113.96240778 569.1977927 -110.9543457 569.17700195 C-109.63774963 569.1729686 -109.63774963 569.1729686 -108.29455566 569.16885376 C-99.02481804 569.65748082 -99.02481804 569.65748082 -91 567 C-90.47357914 564.35786865 -90.67275962 562.59176919 -91.98095703 560.22607422 C-93.45058656 558.08154352 -94.98907496 556.00713133 -96.5625 553.9375 C-97.14386719 553.15310547 -97.72523438 552.36871094 -98.32421875 551.56054688 C-100.20391274 549.03095869 -102.10056627 546.51479064 -104 544 C-105.24926994 542.33506447 -106.49797076 540.66970176 -107.74609375 539.00390625 C-109.63118077 536.48980166 -111.51754169 533.97671283 -113.40820312 531.46679688 C-118.07007725 525.27172673 -122.63420557 519.01256417 -127.15844727 512.71655273 C-132.78412191 504.89247677 -138.50701944 497.14127344 -144.23388672 489.39111328 C-147.74312623 484.64000853 -151.24461276 479.88318709 -154.74755859 475.12744141 C-157.67420749 471.15468511 -160.60270774 467.18332154 -163.53515625 463.21484375 C-169.7740968 454.76742867 -175.97058997 446.29241591 -182.10571289 437.76928711 C-186.60753912 431.523148 -191.17165437 425.32440317 -195.74975586 419.1340332 C-200.44001519 412.78352829 -205.0664443 406.38861131 -209.65039062 399.9609375 C-211.94106358 396.76644145 -214.22916143 393.71349077 -216.87109375 390.80078125 C-219.26015199 387.65774499 -219.44219258 386.80372533 -219 383 C-217.90527344 381.04980469 -217.90527344 381.04980469 -216.359375 379.171875 C-215.78928711 378.46313232 -215.21919922 377.75438965 -214.63183594 377.02416992 C-214.01083008 376.27369385 -213.38982422 375.52321777 -212.75 374.75 C-211.4551186 373.13929788 -210.16351712 371.52595414 -208.875 369.91015625 C-208.22273438 369.09305176 -207.57046875 368.27594727 -206.8984375 367.43408203 C-204.04688557 363.77796414 -201.3906255 359.99743347 -198.75 356.1875 C-194.50324839 350.08679764 -190.11153082 344.15088434 -185.546875 338.28515625 C-174.58243045 324.19473317 -164.1125757 309.70956752 -153.5625 295.30859375 C-152.41701227 293.74714224 -151.2711787 292.18594438 -150.125 290.625 C-149.56006836 289.85534912 -148.99513672 289.08569824 -148.41308594 288.29272461 C-145.21804702 283.95666436 -141.98257148 279.65545441 -138.703125 275.3828125 C-137.98237793 274.44356934 -137.26163086 273.50432617 -136.51904297 272.53662109 C-135.12632459 270.72649953 -133.72972805 268.91935286 -132.32861328 267.11572266 C-128.82248247 262.56298563 -125.70182301 258.07448991 -123 253 C-126.1353473 249.57191757 -129.62919808 247.21320744 -133.5625 244.8125 C-140.14423265 240.6830544 -146.12964731 236.10193514 -152 231 C-152.79535156 230.31550781 -153.59070313 229.63101563 -154.41015625 228.92578125 C-155.59931641 227.87970703 -155.59931641 227.87970703 -156.8125 226.8125 C-158.05193359 225.72582031 -158.05193359 225.72582031 -159.31640625 224.6171875 C-161.4175745 222.56801323 -163.15497303 220.60517981 -164.96484375 218.3203125 C-169.81031561 212.45419869 -173.72225433 207.88808744 -181.61328125 207 C-193.00615967 206.4262892 -193.00615967 206.4262892 -203 211 C-204.72217289 212.95254512 -206.27584236 214.85146735 -207.8125 216.9375 C-208.24771973 217.5159668 -208.68293945 218.09443359 -209.13134766 218.69042969 C-212.53265551 223.25622778 -215.70288494 227.95887638 -218.8203125 232.72265625 C-222.88930165 238.84072417 -227.18250563 244.80354805 -231.43554688 250.79443359 C-233.96352293 254.35837487 -236.48136261 257.92945626 -239 261.5 C-239.99994885 262.91670277 -240.99994891 264.3333694 -242 265.75 C-242.7425 266.801875 -242.7425 266.801875 -243.5 267.875 C-260 291.25 -260 291.25 -261.50268555 293.37841797 C-262.49422027 294.78334815 -263.48527517 296.1886171 -264.47583008 297.59423828 C-267.10134395 301.31851262 -269.73696782 305.0351095 -272.38671875 308.7421875 C-273.21526367 309.90524414 -273.21526367 309.90524414 -274.06054688 311.09179688 C-275.12260744 312.58225161 -276.18758416 314.07063388 -277.25585938 315.55664062 C-277.73216797 316.22630859 -278.20847656 316.89597656 -278.69921875 317.5859375 C-279.12033936 318.1742334 -279.54145996 318.7625293 -279.9753418 319.36865234 C-281.17879695 321.14171144 -281.17879695 321.14171144 -282 324 C-284.43721584 323.62388807 -285.69703282 323.32530898 -287.4026947 321.49386597 C-287.82788895 320.84346344 -288.25308319 320.19306091 -288.69116211 319.52294922 C-289.43115448 318.4100074 -289.43115448 318.4100074 -290.18609619 317.27458191 C-290.71120789 316.45951675 -291.23631958 315.6444516 -291.77734375 314.8046875 C-292.3358905 313.95840286 -292.89443726 313.11211823 -293.46990967 312.2401886 C-295.30287761 309.45850086 -297.11987823 306.66673403 -298.9375 303.875 C-300.20999977 301.93962631 -301.48385527 300.00514336 -302.7590332 298.0715332 C-304.68739327 295.14705629 -306.61490017 292.22205744 -308.53813171 289.29420471 C-313.84919066 281.20891321 -319.24301277 273.18334665 -324.6875 265.1875 C-326.34820322 262.74646536 -328.00829137 260.30501346 -329.66796875 257.86328125 C-330.08493515 257.2501004 -330.50190155 256.63691956 -330.9315033 256.00515747 C-333.95376581 251.55526193 -336.9547119 247.09138516 -339.94819641 242.62208557 C-342.23562983 239.20716905 -344.52706643 235.79494614 -346.81851196 232.38272095 C-347.92840183 230.72746441 -349.03633372 229.07089312 -350.1421814 227.41293335 C-351.68345615 225.10256577 -353.23163313 222.79696507 -354.78125 220.4921875 C-355.23554886 219.80718674 -355.68984772 219.12218597 -356.15791321 218.41642761 C-356.80774422 217.45401909 -356.80774422 217.45401909 -357.47070312 216.47216797 C-357.84038208 215.91947235 -358.21006104 215.36677673 -358.59094238 214.79733276 C-359.0559314 214.20421295 -359.52092041 213.61109314 -360 213 C-360.65151535 212.11509384 -361.3030307 211.23018768 -361.97428894 210.31846619 C-366.47353306 206.87089794 -370.41845848 207.33679825 -375.94067383 207.43237305 C-377.04355743 207.43164291 -378.14644104 207.43091278 -379.28274536 207.43016052 C-382.92467592 207.43364128 -386.56532437 207.47252848 -390.20703125 207.51171875 C-392.7333659 207.52104506 -395.25970959 207.52816203 -397.78605652 207.53315735 C-403.75373703 207.55029113 -409.72086801 207.58968842 -415.68832844 207.6399048 C-422.48389696 207.69584504 -429.27948774 207.72329639 -436.07522929 207.74838197 C-450.050407 207.80060637 -464.02517833 207.88851919 -478 208 Z " fill="#3B2967" transform="translate(794,138)"/>
<path d="M0 0 C2.92483867 1.82547936 5.43429205 3.86858411 7 7 C7.39447548 11.18144011 7.45035186 13.30946048 5.125 16.875 C2.23714203 19.76285797 1.41692062 19.95830794 -2.75 20.375 C-5.91193254 20.3173005 -7.90884475 19.83848634 -10.5 18 C-13.32269347 14.61276783 -13.73959974 13.18285726 -13.39453125 8.9296875 C-12.64227806 5.25035013 -11.2198902 2.88336876 -8.1875 0.6875 C-5.17760008 -0.25846855 -3.14801964 -0.44072275 0 0 Z " fill="#372764" transform="translate(803,316)"/>
<path d="M0 0 C3.0625 1.9375 3.0625 1.9375 5 5 C5.6909471 8.15779957 5.70890469 10.84423072 5 14 C2.58081946 17.4153137 0.98403987 18.69248754 -3 19.9375 C-7.01427183 20.02113066 -9.4187376 19.01652583 -12.75 16.875 C-14.7901612 13.81475819 -15.24434358 10.59728042 -15 7 C-11.31496208 0.01113498 -7.5633454 -1.10842131 0 0 Z " fill="#362663" transform="translate(721,236)"/>
<path d="M0 0 C2.69990662 1.79993774 4.5418865 3.083773 6 6 C6.51571681 10.37936569 6.83341277 13.85046515 4.1875 17.5 C0.20283835 20.23233942 -3.26365652 20.48996657 -8 20 C-11.2856634 17.57146618 -12.70758271 15.87725186 -14 12 C-14 7.18318736 -12.00192972 5.00192972 -8.6875 1.6875 C-5.40283771 -0.37496237 -3.81368049 -0.63561341 0 0 Z " fill="#362562" transform="translate(813,203)"/>
<path d="M0 0 C2.66058731 2.14144833 3.7253011 3.56867416 4.37109375 6.93359375 C4.59425621 10.51095567 4.15244562 12.68848069 2.5625 15.9375 C-1.05901976 18.85238176 -4.39406378 19.44335215 -9 19 C-11.92143417 17.23496686 -13.47923817 16.04152365 -15 13 C-15.5811138 5.91041162 -15.5811138 5.91041162 -13.125 2.0625 C-9.05289345 -1.88983871 -5.28514995 -1.34240931 0 0 Z " fill="#372763" transform="translate(672,291)"/>
<path d="M0 0 C15.84 0.33 31.68 0.66 48 1 C48 1.33 48 1.66 48 2 C39.42 2.33 30.84 2.66 22 3 C22 3.33 22 3.66 22 4 C14.74 4 7.48 4 0 4 C0 2.68 0 1.36 0 0 Z " fill="#45366F" transform="translate(691,290)"/>
<path d="M0 0 C7.92 0 15.84 0 24 0 C19.56280401 2.95813066 16.54588583 3.1143157 11.3125 3.0625 C9.54326172 3.04896484 9.54326172 3.04896484 7.73828125 3.03515625 C6.38283203 3.01775391 6.38283203 3.01775391 5 3 C5 2.67 5 2.34 5 2 C3.35 1.67 1.7 1.34 0 1 C0 0.67 0 0.34 0 0 Z " fill="#42326E" transform="translate(596,707)"/>
<path d="M0 0 C0.66 0 1.32 0 2 0 C4.2968097 2.58458866 6.20134585 5.48525871 8.1875 8.3125 C8.75919922 9.09818359 9.33089844 9.88386719 9.91992188 10.69335938 C10.45552734 11.45068359 10.99113281 12.20800781 11.54296875 12.98828125 C12.03821045 13.68477783 12.53345215 14.38127441 13.04370117 15.09887695 C13.35927979 15.72624756 13.6748584 16.35361816 14 17 C13.67 17.99 13.34 18.98 13 20 C12.53158691 19.2886792 12.53158691 19.2886792 12.05371094 18.56298828 C10.6285997 16.41055343 9.18953175 14.26781444 7.75 12.125 C7.25886719 11.37863281 6.76773438 10.63226562 6.26171875 9.86328125 C5.77832031 9.14785156 5.29492188 8.43242188 4.796875 7.6953125 C4.13703613 6.7055542 4.13703613 6.7055542 3.46386719 5.69580078 C1.81501273 3.78570353 0.30763285 2.97231721 -2 2 C-1.34 1.34 -0.68 0.68 0 0 Z " fill="#281C57" transform="translate(510,586)"/>
<path d="M0 0 C0.66 0.99 1.32 1.98 2 3 C-0.97 5.475 -0.97 5.475 -4 8 C-4.33 7.01 -4.66 6.02 -5 5 C-3.35 3.35 -1.7 1.7 0 0 Z " fill="#42346C" transform="translate(275,298)"/>
<path d="M0 0 C0.80308594 -0.02578125 1.60617187 -0.0515625 2.43359375 -0.078125 C3.48740234 0.08429688 3.48740234 0.08429688 4.5625 0.25 C5.2225 1.24 5.8825 2.23 6.5625 3.25 C5.1254191 3.30422947 3.68774538 3.34289723 2.25 3.375 C1.44949219 3.39820313 0.64898438 3.42140625 -0.17578125 3.4453125 C-2.4375 3.25 -2.4375 3.25 -5.4375 1.25 C-3.84882134 -0.33867866 -2.19060484 0.04205961 0 0 Z " fill="#43326D" transform="translate(527.4375,199.75)"/>
<path d="M0 0 C0 0.66 0 1.32 0 2 C-1.63064764 3.05771739 -3.30280873 4.05273046 -5 5 C-5.99 5.66 -6.98 6.32 -8 7 C-7.08529012 1.6946827 -5.46561428 0 0 0 Z " fill="#291B58" transform="translate(799,317)"/>
<path d="M0 0 C-0.33 0.66 -0.66 1.32 -1 2 C-5.62 2 -10.24 2 -15 2 C-15 1.67 -15 1.34 -15 1 C-13.0641649 0.63684334 -11.12624752 0.28477269 -9.1875 -0.0625 C-8.10855469 -0.25972656 -7.02960937 -0.45695313 -5.91796875 -0.66015625 C-3 -1 -3 -1 0 0 Z " fill="#43346C" transform="translate(821,238)"/>
<path d="M0 0 C1.2380014 3.57644848 0.74926071 6.33694766 0 10 C-0.66 10 -1.32 10 -2 10 C-1.85950482 8.52031676 -1.71245174 7.04125484 -1.5625 5.5625 C-1.48128906 4.73878906 -1.40007812 3.91507812 -1.31640625 3.06640625 C-1 1 -1 1 0 0 Z " fill="#2D1D5B" transform="translate(197,435)"/>
</svg>
